Coordinates
version=1
nRows=21
nColumns=33
inDegrees=yes

Units are S.I. units (second, meters, Newtons, ...)
Angles are in degrees.

endheader
time	ground_thorax_rot_x	ground_thorax_rot_y	ground_thorax_rot_z	ground_thorax_tx	ground_thorax_ty	ground_thorax_tz	clav_prot_r	clav_elev_r	scapula_abduction_r	scapula_elevation_r	scapula_upward_rot_r	scapula_winging_r	shoulder_elv_r	plane_of_elev_r	axial_rot_r	elbow_flexion_r	pro_sup_r	wrist_flex_r	wrist_dev_r	clav_prot_l	clav_elev_l	scapula_abduction_l	scapula_elevation_l	scapula_upward_rot_l	scapula_winging_l	shoulder_elv_l	plane_of_elev_l	axial_rot_l	elbow_flexion_l	pro_sup_l	wrist_flex_l	wrist_dev_l
      1.92000000	    -23.50034583	    -26.57782657	     49.18068427	     32.05564073	    773.71068205	    -44.39269132	     28.30962040	    -45.00000000	     39.23945103	    -45.00000000	    -45.00000000	  -4062.24580514	  -4066.06061175	    160.82189971	     41.43604813	   1081.11213440	   -191.62783922	     11.55807205	     12.97557589	     -0.65247739	     30.54260628	    -27.71582813	    -45.00000000	    -45.00000000	  -2798.23269910	  -3690.90821870	    134.28107556	   -108.69488688	    709.75318975	     46.17554759	     12.03539418	    -14.89460874
      1.93000000	    -23.76547415	    -26.35152597	     48.66600232	     28.95364160	    774.66958245	    -44.42045392	     28.26324590	    -45.00000000	     39.21718520	    -45.00000000	    -45.00000000	  -4062.32651408	  -4065.99836202	    160.75832044	     41.06100877	   1081.08170949	   -191.66049536	     11.55725883	     13.05696978	     -0.62564209	     30.59756732	    -27.85889336	    -45.00000000	    -45.00000000	  -2798.07266327	  -3690.83311318	    134.25113953	   -108.57995826	    709.71523279	     45.97298654	     12.10547329	    -14.97271964
      1.94000000	    -24.05570795	    -26.12555691	     48.10877378	     25.82795438	    775.71207604	    -44.44951251	     28.18205933	    -45.00000000	     39.17353285	    -45.00000000	    -45.00000000	  -4062.38628729	  -4065.96564314	    160.66956900	     40.64187513	   1081.09109725	   -191.74798652	     11.54853309	     13.13806372	     -0.58467680	     30.63835400	    -28.00070635	    -45.00000000	    -45.00000000	  -2797.91307894	  -3690.75230064	    134.21982220	   -108.42760577	    709.69165309	     45.75415248	     12.15492803	    -15.03727692
      1.95000000	    -24.30083089	    -25.88502777	     47.60823019	     22.68455693	    776.83646632	    -44.47944222	     28.16166013	    -45.00000000	     39.15877755	    -45.00000000	    -45.00000000	  -4062.50605699	  -4065.88354344	    160.61198028	     40.23867636	   1081.03027901	   -191.88859561	     11.55049373	     13.22269252	     -0.57444256	     30.67595926	    -28.13964999	    -45.00000000	    -45.00000000	  -2797.76637038	  -3690.66312575	    134.16460812	   -108.26828265	    709.63839268	     45.52402166	     12.22887668	    -15.10544774
      1.96000000	    -24.57724714	    -25.64815259	     47.05557449	     19.53497028	    778.03748013	    -44.51087328	     28.11650522	    -45.00000000	     39.11088177	    -45.00000000	    -45.00000000	  -4062.59720419	  -4065.82313031	    160.50831817	     39.75988040	   1081.00368208	   -192.09220239	     11.54093607	     13.30754195	     -0.54121987	     30.70909178	    -28.28477104	    -45.00000000	    -45.00000000	  -2797.60758891	  -3690.56307985	    134.10781319	   -108.06119539	    709.61769682	     45.30182409	     12.28805260	    -15.17996995
      1.97000000	    -24.84563480	    -25.41370661	     46.53075360	     16.38053245	    779.31269443	    -44.54519182	     28.06114439	    -45.00000000	     39.07486776	    -45.00000000	    -45.00000000	  -4062.71577198	  -4065.80834473	    160.39312470	     39.35157744	   1081.03107548	   -192.29562372	     11.50938703	     13.39695247	     -0.52459917	     30.76959119	    -28.42030175	    -45.00000000	    -45.00000000	  -2797.44555750	  -3690.45959196	    134.04517454	   -107.84550439	    709.59447584	     45.09624018	     12.36247015	    -15.27023885
      1.98000000	    -25.07560693	    -25.19968478	     46.01567091	     13.22966938	    780.65715675	    -44.58382698	     28.05643951	    -45.00000000	     39.09492508	    -45.00000000	    -45.00000000	  -4062.82032124	  -4065.74312078	    160.34899901	     38.93703900	   1080.93403038	   -192.53912614	     11.49648096	     13.48960536	     -0.52439706	     30.82373688	    -28.54865699	    -45.00000000	    -45.00000000	  -2797.29010863	  -3690.35380755	    134.00429058	   -107.66787048	    709.56787772	     44.91179587	     12.44555952	    -15.36733589
      1.99000000	    -25.26453667	    -25.04580648	     45.54713833	     10.07999817	    782.06919291	    -44.62768028	     28.09054524	    -45.00000000	     39.15995100	    -45.00000000	    -45.00000000	  -4062.91573496	  -4065.67150246	    160.31135254	     38.59255322	   1080.84265641	   -192.81591573	     11.47088321	     13.58106582	     -0.53670846	     30.96676039	    -28.65863655	    -45.00000000	    -45.00000000	  -2797.12677595	  -3690.25622794	    134.00153906	   -107.50563593	    709.51022562	     44.75767620	     12.55571309	    -15.47730909
      2.00000000	    -25.55441886	    -24.76179258	     44.95524066	      6.91592656	    783.56142992	    -44.67692527	     27.99557349	    -45.00000000	     39.08279608	    -45.00000000	    -45.00000000	  -4062.96376447	  -4065.62731409	    160.21854321	     38.01662499	   1080.87119143	   -193.12538772	     11.44590124	     13.63172849	     -0.50182735	     30.83291290	    -28.86216694	    -45.00000000	    -45.00000000	  -2796.93052253	  -3690.18605984	    133.89367792	   -107.36082643	    709.53755314	     44.64482786	     12.59069282	    -15.57258085
      2.01000000	    -25.69973567	    -24.59850165	     44.51983620	      3.74780891	    785.12306513	    -44.73000677	     28.05246418	    -45.00000000	     39.19260126	    -45.00000000	    -45.00000000	  -4063.10453126	  -4065.54227316	    160.19569274	     37.74645346	   1080.70788764	   -193.41636049	     11.42690613	     13.72630723	     -0.52624283	     31.09438999	    -28.94239630	    -45.00000000	    -45.00000000	  -2796.78599875	  -3690.07154985	    133.90071418	   -107.14908966	    709.46966226	     44.56400292	     12.73462989	    -15.71383637
      2.02000000	    -25.98038410	    -24.27843488	     43.93189936	      0.59360247	    786.74079360	    -44.78593069	     27.91935162	    -45.00000000	     39.06569677	    -45.00000000	    -45.00000000	  -4063.18059432	  -4065.48238645	    160.04524707	     37.17829901	   1080.79065419	   -193.74120660	     11.40687205	     13.74789262	     -0.47313319	     31.02366718	    -29.15435398	    -45.00000000	    -45.00000000	  -2796.61340491	  -3689.97826390	    133.78250962	   -106.94025938	    709.50590429	     44.51251414	     12.75808864	    -15.81181014
      2.03000000	    -26.13506952	    -24.11007828	     43.46647720	     -2.50919327	    788.38216065	    -44.84292565	     27.94676779	    -45.00000000	     39.14644486	    -45.00000000	    -45.00000000	  -4063.27239422	  -4065.39223425	    160.02052220	     36.87555132	   1080.65082148	   -194.05416517	     11.39433399	     13.80986019	     -0.48305571	     31.19969787	    -29.23558922	    -45.00000000	    -45.00000000	  -2796.46687830	  -3689.85464833	    133.77879537	   -106.69112114	    709.44161751	     44.47400486	     12.86770253	    -15.92760419
      2.04000000	    -26.34175792	    -23.88067383	     42.96241198	     -5.55118960	    790.03799551	    -44.89980962	     27.87345072	    -45.00000000	     39.10695288	    -45.00000000	    -45.00000000	  -4063.32892502	  -4065.31695057	    159.94713021	     36.44985472	   1080.65019773	   -194.40011825	     11.37610035	     13.82971726	     -0.46621571	     31.19978544	    -29.36275550	    -45.00000000	    -45.00000000	  -2796.32219882	  -3689.75070618	    133.73671782	   -106.48816148	    709.44929699	     44.43035653	     12.90106262	    -16.01309042
      2.05000000	    -26.50566541	    -23.70318764	     42.50574721	     -8.51083306	    791.68495050	    -44.95403330	     27.87797649	    -45.00000000	     39.15562343	    -45.00000000	    -45.00000000	  -4063.50272236	  -4065.23745168	    159.83288559	     36.20853489	   1080.56408196	   -194.74218353	     11.36458058	     13.87634160	     -0.48478679	     31.36652497	    -29.48772465	    -45.00000000	    -45.00000000	  -2796.14952668	  -3689.61446298	    133.67797502	   -106.21298779	    709.40330270	     44.37053459	     12.99513635	    -16.11741506
      2.06000000	    -26.69705840	    -23.50771918	     42.03822176	    -11.38990046	    793.32070998	    -45.00372137	     27.83134766	    -45.00000000	     39.12715509	    -45.00000000	    -45.00000000	  -4063.59997404	  -4065.14860027	    159.75204827	     35.81146331	   1080.52952827	   -195.12281116	     11.34734705	     13.89839375	     -0.46680767	     31.41712072	    -29.64539006	    -45.00000000	    -45.00000000	  -2795.98532740	  -3689.50563128	    133.63875309	   -106.01085051	    709.39203415	     44.28411305	     13.05202468	    -16.19630249
      2.07000000	    -26.87589374	    -23.38186810	     41.59696784	    -14.19929680	    794.94697905	    -45.04596072	     27.84925075	    -45.00000000	     39.18679052	    -45.00000000	    -45.00000000	  -4063.70019223	  -4065.09339076	    159.69980891	     35.53324260	   1080.42589293	   -195.51866523	     11.32021233	     13.94483875	     -0.48965635	     31.50384516	    -29.72601398	    -45.00000000	    -45.00000000	  -2795.82495911	  -3689.40368116	    133.62697041	   -105.81417031	    709.38026013	     44.16515553	     13.11737484	    -16.27197038
      2.08000000	    -27.07578032	    -23.18300155	     41.11384236	    -16.96843268	    796.58328474	    -45.07854510	     27.76264630	    -45.00000000	     39.15069752	    -45.00000000	    -45.00000000	  -4063.78741331	  -4065.00465038	    159.60538914	     35.10792361	   1080.39917109	   -195.93321865	     11.30111140	     13.95787193	     -0.45741795	     31.50503574	    -29.87424750	    -45.00000000	    -45.00000000	  -2795.68831152	  -3689.30163750	    133.57842553	   -105.56648154	    709.37477322	     44.02852926	     13.15613611	    -16.32349145
      2.09000000	    -27.26455426	    -23.01215609	     40.66963144	    -19.70040319	    798.22884166	    -45.09768287	     27.73393823	    -45.00000000	     39.12767244	    -45.00000000	    -45.00000000	  -4063.86756014	  -4064.90798385	    159.51263425	     34.73065862	   1080.39446844	   -196.35197962	     11.27863895	     13.95569488	     -0.44146502	     31.57288930	    -30.00625586	    -45.00000000	    -45.00000000	  -2795.53649622	  -3689.18535440	    133.53872190	   -105.31082531	    709.36240404	     43.87992029	     13.20998215	    -16.37777614
      2.10000000	    -27.41903803	    -22.85086514	     40.23967059	    -22.39297894	    799.88254080	    -45.10188228	     27.68759918	    -45.00000000	     39.11844583	    -45.00000000	    -45.00000000	  -4063.98539149	  -4064.84105109	    159.40750856	     34.36429746	   1080.37056675	   -196.76668128	     11.25645818	     13.96139045	     -0.44479641	     31.62541053	    -30.13395255	    -45.00000000	    -45.00000000	  -2795.38150665	  -3689.08299943	    133.48608265	   -105.10172155	    709.35657341	     43.71865441	     13.27972290	    -16.44419705
      2.11000000	    -27.59368503	    -22.69313166	     39.78973231	    -25.04367441	    801.54547244	    -45.09025611	     27.69614337	    -45.00000000	     39.14049119	    -45.00000000	    -45.00000000	  -4064.06673579	  -4064.76304443	    159.33909622	     34.01272404	   1080.28442370	   -197.20977576	     11.23064261	     13.97515075	     -0.45480654	     31.70731246	    -30.24392143	    -45.00000000	    -45.00000000	  -2795.24045725	  -3688.96873292	    133.44704088	   -104.87633567	    709.34851297	     43.54808641	     13.35513347	    -16.51031554
      2.12000000	    -27.74687732	    -22.56083580	     39.39410767	    -27.64445384	    803.21730743	    -45.06419258	     27.64498128	    -45.00000000	     39.13635449	    -45.00000000	    -45.00000000	  -4064.16047867	  -4064.70246349	    159.25967243	     33.64081313	   1080.24124860	   -197.63950627	     11.20681489	     13.97044817	     -0.45448953	     31.76774132	    -30.36177732	    -45.00000000	    -45.00000000	  -2795.09453362	  -3688.85856975	    133.43058909	   -104.69185496	    709.35427216	     43.36938059	     13.41314601	    -16.56519909
